<svg xmlns="http://www.w3.org/2000/svg" version="1.1" xmlns:xlink="http://www.w3.org/1999/xlink" xmlns:svgjs="http://svgjs.com/svgjs" width="1440" height="560" preserveAspectRatio="none" viewBox="0 0 1440 560"><g mask="url(&quot;#SvgjsMask1017&quot;)" fill="none"><rect width="1440" height="560" x="0" y="0" fill="rgba(62, 63, 64, 1)"></rect><path d="M395.07 450.98 a101.19 101.19 0 1 0 202.38 0 a101.19 101.19 0 1 0 -202.38 0z" fill="rgba(124, 141, 159, 0.4)" class="triangle-float3"></path><path d="M110.56 353.66 a181.29 181.29 0 1 0 362.58 0 a181.29 181.29 0 1 0 -362.58 0z" fill="rgba(124, 141, 159, 0.4)" class="triangle-float1"></path><path d="M1129.26 155.86 a139.16 139.16 0 1 0 278.32 0 a139.16 139.16 0 1 0 -278.32 0z" fill="rgba(124, 141, 159, 0.4)" class="triangle-float2"></path><path d="M966.78 321.05 a159.25 159.25 0 1 0 318.5 0 a159.25 159.25 0 1 0 -318.5 0z" fill="rgba(124, 141, 159, 0.4)" class="triangle-float1"></path><path d="M532.06 331.12 a150.68 150.68 0 1 0 301.36 0 a150.68 150.68 0 1 0 -301.36 0z" fill="rgba(124, 141, 159, 0.4)" class="triangle-float1"></path><path d="M779.62 396.64 a103.4 103.4 0 1 0 206.8 0 a103.4 103.4 0 1 0 -206.8 0z" fill="rgba(124, 141, 159, 0.4)" class="triangle-float1"></path></g><defs><mask id="SvgjsMask1017"><rect width="1440" height="560" fill="#ffffff"></rect></mask><style>
            @keyframes float1 {
                0%{transform: translate(0, 0)}
                50%{transform: translate(-10px, 0)}
                100%{transform: translate(0, 0)}
            }

            .triangle-float1 {
                animation: float1 5s infinite;
            }

            @keyframes float2 {
                0%{transform: translate(0, 0)}
                50%{transform: translate(-5px, -5px)}
                100%{transform: translate(0, 0)}
            }

            .triangle-float2 {
                animation: float2 4s infinite;
            }

            @keyframes float3 {
                0%{transform: translate(0, 0)}
                50%{transform: translate(0, -10px)}
                100%{transform: translate(0, 0)}
            }

            .triangle-float3 {
                animation: float3 6s infinite;
            }
        </style></defs></svg>