<svg xmlns="http://www.w3.org/2000/svg" version="1.1" xmlns:xlink="http://www.w3.org/1999/xlink" xmlns:svgjs="http://svgjs.com/svgjs" width="1440" height="560" preserveAspectRatio="none" viewBox="0 0 1440 560"><g mask="url(&quot;#SvgjsMask1001&quot;)" fill="none"><rect width="1440" height="560" x="0" y="0" fill="rgba(50, 54, 58, 1)"></rect><path d="M0,677.244C123.006,657.476,215.058,563.346,310.847,483.687C395.815,413.027,472.865,337.142,525.689,240.074C581.572,137.385,626.351,27.311,622.796,-89.545C618.994,-214.509,602.377,-359.148,505.07,-437.645C407.931,-516.006,263.955,-460.102,140.526,-478.588C38.299,-493.898,-54.364,-541.051,-157.648,-536.898C-284.696,-531.789,-428.763,-538.853,-521.594,-451.964C-615.46,-364.106,-629.349,-219.628,-633.888,-91.139C-638.113,28.45,-587.543,137.162,-546.375,249.521C-501.605,371.709,-484.918,514.888,-382.45,595.104C-277.656,677.141,-131.4,698.361,0,677.244" fill="#282b2e"></path><path d="M1440 1046.87C1528.626 1027.034 1603.273 980.602 1685.436 941.906 1781.935 896.4580000000001 1908.17 890.052 1964.842 799.687 2022.04 708.483 2002.95 586.774 1973.011 483.365 1945.3310000000001 387.759 1868.817 320.125 1804.103 244.503 1738.951 168.37 1689.844 64.63400000000001 1592.919 39.20600000000002 1496.317 13.863000000000056 1405.821 89.24700000000001 1309.242 114.67899999999997 1209.094 141.051 1085.936 116.30599999999998 1014.693 191.469 943.357 266.73 952.162 386.356 953.453 490.045 954.595 581.82 997.4490000000001 662.519 1021.6569999999999 751.0509999999999 1051.426 859.921 1019.94 1005.065 1112.095 1070.23 1203.415 1134.804 1330.856 1071.298 1440 1046.87" fill="#3c4146"></path></g><defs><mask id="SvgjsMask1001"><rect width="1440" height="560" fill="#ffffff"></rect></mask></defs></svg>